<svg width="99" height="39" viewBox="0 0 99 39" fill="none" xmlns="http://www.w3.org/2000/svg">
<g filter="url(#filter0_g_263_345)">
<path d="M3.16609 27.7695C2.98082 27.292 3.08139 26.4214 3.13163 25.9506C3.13248 25.942 3.13333 25.9334 3.13418 25.9247C3.14623 25.8121 3.15038 25.7075 3.15477 25.5829C3.15497 25.577 3.15518 25.571 3.15539 25.565C3.17077 25.2064 3.17925 24.7072 3.43199 23.7276C3.46853 23.433 3.51698 23.137 3.57702 22.845C3.97255 20.8538 4.9445 18.989 6.02278 17.5161C6.89681 16.234 8.25757 15.4362 9.45885 15.0608C9.49905 15.0442 9.53991 15.0276 9.58104 15.0113C10.2892 14.7262 11.1293 14.5175 11.7197 14.4645C11.8161 14.4538 11.9075 14.4473 11.9937 14.4445C12.9724 14.4203 13.5924 14.6122 14.06 14.7757C15.8608 15.2742 17.1315 16.2764 18.276 17.2385C18.8916 17.7655 19.4747 18.332 20.0157 18.9464C20.5066 19.5037 20.961 20.0999 21.3661 20.7291C21.7394 21.3071 22.0701 21.9207 22.3513 22.5356C22.549 22.8812 22.7288 23.2084 22.8862 23.4928C22.9184 23.5504 22.951 23.6096 22.9808 23.6617C23.2039 24.0991 23.3433 24.4997 23.4227 24.8384C23.6501 25.8032 23.5698 26.8495 23.4534 27.5926C23.4347 27.7147 23.4153 27.8293 23.3966 27.9349C23.3576 28.5313 23.2861 29.1192 23.1556 29.733C23.129 29.7705 23.1017 29.8074 23.0736 29.8441C22.8911 30.0826 22.7782 30.3259 22.5362 30.77C22.3171 31.1508 22.0137 31.5861 21.6016 31.985C21.2446 32.3337 20.8203 32.6498 20.3438 32.944C20.0367 33.1329 19.8432 33.151 19.6845 33.1685C19.6645 33.1706 19.6451 33.1726 19.626 33.175C19.5989 33.1791 19.5727 33.1835 19.547 33.1889C19.3931 33.2209 19.2895 33.3483 19.1603 33.4973C18.9931 33.6899 18.7796 33.9218 18.3896 33.9964C17.1583 34.2139 16.7299 34.5109 16.3725 34.7744C16.2688 34.8485 16.1742 34.9143 16.0711 34.962C15.7376 35.1181 15.2176 35.1417 14.828 35.0947C14.5191 35.0609 13.9384 35.2051 13.495 35.3325C13.3285 35.3815 13.0989 35.3948 12.8339 35.4049C12.6254 35.4131 12.3943 35.4191 12.1586 35.4426C12.0535 35.4507 11.945 35.4575 11.8331 35.4628C10.6289 35.4882 10.0849 35.2351 9.6822 35.1249C9.56697 35.0873 9.46234 35.0509 9.35977 35.0145C9.03552 34.8997 8.6643 34.736 8.31047 34.5712C7.88413 34.3726 7.47275 34.1701 7.15123 34.0342C7.06058 33.9729 6.97657 33.9151 6.8868 33.8536L6.47217 33.5183C5.91215 32.8527 5.41268 32.1351 4.97842 31.4246C4.86099 31.2329 4.77756 31.0273 4.73065 30.8212L4.6854 30.7511C4.6074 30.4514 4.6085 30.1668 4.67412 29.9313C4.80021 29.4952 5.08854 29.1811 5.45423 28.9926C5.82095 28.8046 6.26373 28.8051 6.67114 28.9452C6.88918 29.0182 7.07915 29.1052 7.23879 29.1947L7.20152 29.1369C7.37071 29.2477 7.52078 29.381 7.64635 29.5317C8.10915 30.0892 8.58401 30.5933 9.09107 31.0645L8.73827 30.7792C8.85841 30.8419 8.97506 30.9025 9.09242 30.9636C10.0374 31.4524 11.0406 31.9843 11.6345 32.1269C11.802 32.1684 11.9318 32.1848 12.0945 32.1853C12.549 32.1814 12.9693 32.1768 13.3851 32.1579C13.4555 32.1547 13.5288 32.1511 13.5988 32.1472C14.1698 31.9986 14.7026 31.8194 15.0712 31.7064C15.3756 31.6139 15.6083 31.6072 15.8112 31.5969C15.9494 31.5899 16.0732 31.5806 16.1869 31.538C16.2486 31.5149 16.3293 31.4807 16.4279 31.4368C16.8253 31.2629 17.455 30.9294 18.0644 30.6573C18.0727 30.6534 18.0811 30.6495 18.0894 30.6457C18.4087 30.499 18.7794 30.3671 19.0903 30.244C19.54 30.0693 19.8435 29.9041 19.9042 29.7642C19.9456 29.6729 19.9892 29.5914 20.035 29.5064C20.0775 29.4376 20.2044 29.1572 20.2885 28.9333C20.4249 28.5738 20.5204 28.2242 20.4815 28.0177C20.4346 27.77 20.4921 27.5751 20.5644 27.278C20.6135 27.0721 20.6699 26.8162 20.6821 26.4714C20.6949 26.0744 20.7233 25.7976 20.7394 25.5619C20.7599 25.2339 20.7574 24.9736 20.5597 24.6886C20.5403 24.6613 20.5209 24.6345 20.5016 24.6082C20.257 24.2141 20.0602 23.8534 19.9538 23.5405C19.901 23.3834 19.8195 23.2172 19.7296 23.047C19.6107 22.8214 19.4779 22.5917 19.3847 22.3637C19.3078 22.1756 19.2845 21.993 19.259 21.8286C19.2513 21.7779 19.2433 21.7289 19.2334 21.6822C19.139 21.5481 19.0413 21.4171 18.9385 21.2872C18.9119 21.2737 18.884 21.2609 18.8546 21.2471C18.7064 21.1773 18.524 21.0953 18.3476 20.9607C18.0669 20.7464 17.8913 20.4982 17.691 20.2374C17.5336 20.0336 17.3659 19.8277 17.1228 19.639C16.9851 19.5323 16.8195 19.4281 16.646 19.3266C16.6119 19.3065 16.5778 19.2868 16.5439 19.2673C16.2335 19.0884 15.9272 18.9287 15.7489 18.7732C15.6822 18.7148 15.6464 18.6314 15.6104 18.5489C15.6102 18.5485 15.6101 18.548 15.61 18.5476C15.6076 18.542 15.6051 18.5365 15.6026 18.5309C15.0995 18.254 14.5887 18.0312 14.0962 17.8974C14.0505 17.8943 14.0044 17.8915 13.9597 17.8896C13.7401 17.8792 13.5373 17.8902 13.4038 17.9493C13.2577 18.0113 12.9461 18.0142 12.6606 18.085C12.5542 18.1102 12.4501 18.1429 12.3549 18.1833C12.2418 18.221 12.136 18.2606 12.0425 18.3018C11.9166 18.3572 11.7841 18.3334 11.6472 18.3117C11.5199 18.2914 11.3882 18.2733 11.2665 18.3221C11.2057 18.3465 11.1453 18.3875 11.0833 18.4319C11.0286 18.471 10.9727 18.5129 10.9129 18.5487C10.8576 18.5819 10.7162 18.6042 10.5447 18.6428C10.4387 18.6667 10.3212 18.6971 10.2059 18.7386C9.94288 18.924 9.73755 19.1245 9.58126 19.3363C9.57735 19.4074 9.59257 19.4806 9.62949 19.5549C9.65607 19.6082 9.69464 19.664 9.73547 19.7198C9.79118 19.7954 9.85124 19.871 9.8939 19.9401C9.91472 19.9738 9.92411 20.0006 9.92069 20.0171C9.9119 20.0375 9.89882 20.0535 9.88184 20.0633C9.86077 20.0754 9.834 20.078 9.80975 20.0805C9.78199 20.0832 9.75707 20.0861 9.74765 20.102C9.7409 20.1136 9.74663 20.1336 9.75345 20.1581C9.76437 20.1971 9.7782 20.2479 9.75109 20.2941C9.65032 20.4658 9.52628 20.648 9.41095 20.8259C9.28258 21.0236 9.16484 21.2171 9.09541 21.3808C9.01722 21.5642 8.84464 21.7926 8.68386 22.0286C8.5712 22.1937 8.46436 22.3614 8.39286 22.5147C8.32286 22.6642 8.30014 22.8374 8.28362 23.003C8.26356 23.2022 8.25164 23.3926 8.16624 23.5362C8.1489 23.5653 8.07881 23.5911 7.99145 23.6241C7.92954 23.6475 7.85872 23.6754 7.79166 23.7113C7.74921 23.9177 7.71077 24.1267 7.67716 24.3353C7.68454 24.3439 7.69204 24.3527 7.69974 24.3616C7.69993 24.3617 7.70011 24.3619 7.7003 24.362C7.87419 24.5634 8.11775 24.8129 7.93591 25.1251C7.88976 25.2053 7.81123 25.2539 7.7406 25.2993C7.67129 25.3439 7.60943 25.3846 7.59502 25.4466C7.58346 25.4966 7.60005 25.5543 7.62657 25.6166C7.63743 25.6479 7.64986 25.68 7.66257 25.7129C7.72378 25.8703 7.79169 26.0461 7.72284 26.2208C7.71814 26.2326 7.71299 26.2454 7.70782 26.2586C7.6588 26.3837 7.58597 26.5703 7.44288 26.7515C7.39434 27.2988 7.33661 27.839 7.28489 28.357C7.25207 28.6879 7.22177 29.0122 7.20485 29.2913C7.19605 29.4282 7.19277 29.5586 7.18829 29.6282C7.18498 29.661 7.18397 29.6804 7.16269 29.6432C7.1304 29.6069 7.12871 29.4966 6.83517 29.2242C6.58775 29.0615 6.68806 29.184 6.7773 29.2182C6.99799 29.3286 7.32905 29.5602 7.5652 29.8719C7.80358 30.1861 7.97108 30.5566 8.03231 30.9562C8.09448 31.3555 7.87999 31.7793 7.47958 32.0666C7.07422 32.3508 6.54457 32.5012 5.8768 32.363C5.5453 32.27 5.21788 32.2562 4.57617 31.7604C3.89496 31.0872 3.92267 30.762 3.81189 30.4989C3.73611 30.2402 3.70033 30.0501 3.66818 29.8713C3.60716 29.5182 3.57509 29.2236 3.54643 28.9384C3.53737 28.8968 3.5287 28.8525 3.5207 28.8124C3.46127 28.5047 3.35061 28.229 3.24081 27.9566C3.21563 27.8932 3.19043 27.8327 3.16609 27.7695Z" fill="white"/>
<path d="M25.6342 31.0858C25.3101 30.6105 25.1673 29.7275 25.0979 29.1941C25.0899 29.1394 25.0827 29.0876 25.0763 29.0392C25.0747 29.0277 25.0731 29.0162 25.0716 29.0048C25.0523 28.8558 25.0294 28.7169 25.0051 28.5514C24.9541 28.1617 24.8627 27.6215 24.9729 26.5053C24.9671 26.1829 24.9759 25.8553 25 25.5317C25.0426 24.9543 25.1359 24.3536 25.2754 23.792C25.6065 22.6701 25.9481 22.4495 26.2234 22.0841C26.5073 21.7608 26.7739 21.5085 27.0378 21.2723C27.5647 20.8045 28.0794 20.4136 28.5983 20.0402C29.6342 19.2992 30.6777 18.6474 31.7307 18.0204C31.7606 17.9986 31.791 17.9765 31.8216 17.9543C32.0741 17.771 32.3529 17.5709 32.6292 17.3828C33.2517 16.9649 33.8403 16.7734 34.2565 16.6881C35.1759 16.5157 35.7185 16.5468 36.1675 16.5588C37.5112 16.4854 38.7437 16.5448 39.9665 16.5771C41.6754 16.6346 42.7732 17.5056 43.6798 18.2265C43.9935 18.4865 44.2864 18.7513 44.5678 19.0139C45.2143 19.6902 45.2376 20.088 45.398 20.4839C45.6323 21.2106 45.7787 21.8541 45.9402 22.5051C45.9844 22.6341 46.0285 22.7596 46.0727 22.8845C46.1572 23.1275 46.2354 23.3441 46.3113 23.5682C46.4724 24.0383 46.6064 24.467 46.6819 24.8342C46.8659 25.7107 46.8929 26.7761 46.8077 27.6091C46.7947 27.7421 46.7791 27.8755 46.7631 27.9943C46.7432 28.6646 46.6222 29.4094 46.3929 30.0804C46.3613 30.1185 46.329 30.1551 46.2955 30.1926C46.034 30.4843 45.8178 30.8101 45.6453 31.161C45.5005 31.4692 45.3235 31.8002 45.0915 32.1468C44.8159 32.5588 44.4625 32.992 44.004 33.4237C43.7073 33.7011 43.4961 33.7687 43.3266 33.8244C43.2767 33.8404 43.23 33.8551 43.1851 33.8728C43.0321 33.9325 42.942 34.0795 42.8305 34.2516C42.6868 34.4739 42.5019 34.7429 42.1216 34.8869C41.6462 35.066 41.3026 35.2264 41.0412 35.3844C40.6254 35.6111 40.4731 35.6589 40.2956 35.761C40.1309 35.8516 40.0046 35.9369 39.8893 36.0139C39.7769 36.0882 39.68 36.1528 39.5728 36.2002C39.2302 36.3532 38.7196 36.3786 38.3316 36.3479C38.0226 36.3246 37.4549 36.5059 37.0316 36.6804C36.9557 36.7114 36.8692 36.736 36.7676 36.7587L36.282 36.7589C36.1519 36.7431 36.0085 36.7176 35.8529 36.6868C35.5503 36.6271 35.2062 36.5484 34.8281 36.4883C33.8734 36.3315 33.3793 36.1827 32.9816 36.0686C32.8689 36.0353 32.7628 36.0021 32.6588 35.9693C32.3273 35.8648 31.9265 35.7095 31.528 35.5352C31.0502 35.3272 30.5773 35.0918 30.2109 34.9179C29.3521 34.3138 28.5651 33.6535 27.8092 32.8508C27.748 32.7851 27.6844 32.7097 27.6306 32.6366L27.5765 32.5793C27.2944 32.1918 27.0488 31.4821 27.1603 31.0935C27.2661 30.607 27.5679 30.2936 27.941 30.1222C28.3169 29.9523 28.7617 29.9856 29.164 30.1209C29.5161 30.2542 29.6976 30.2285 29.9643 30.4247L29.9192 30.3769C29.9684 30.4083 30.022 30.448 30.0708 30.4873C30.7079 31.0025 31.4621 31.4812 32.2179 31.8897C33.1455 32.3902 34.1058 32.8017 35.0767 33.1283C35.6499 33.321 36.231 33.4764 36.8176 33.5885L36.2295 33.5888C36.3551 33.5698 36.4793 33.5512 36.603 33.5327C36.6863 33.5202 36.7676 33.5081 36.8507 33.4957C37.5025 33.2796 38.1431 33.0669 38.5753 32.942C38.9312 32.8396 39.1898 32.8323 39.3811 32.8266C39.5093 32.8242 39.6195 32.8147 39.6245 32.8068C39.6225 32.8069 39.617 32.8038 39.5511 32.838C39.5897 32.8123 39.6364 32.7808 39.6834 32.7485C40.0963 32.4681 40.7576 31.9701 41.3625 31.5769C41.6329 31.4034 41.9549 31.2167 42.2382 31.0213C42.6462 30.7446 42.963 30.4427 43.0225 30.2503C43.0448 30.1815 43.069 30.1139 43.0935 30.0478C43.2755 29.5968 43.4883 29.2605 43.6256 28.9841C43.7943 28.6547 43.8888 28.3529 43.8483 28.1561C43.7986 27.9253 43.8495 27.7411 43.9066 27.4352C43.9452 27.2241 43.985 26.9526 43.9751 26.5715C43.9627 26.1325 43.9771 25.8006 43.9881 25.5233C44.0019 25.1317 44.0022 24.8189 43.8274 24.4046C43.6949 24.0894 43.5729 23.7675 43.4865 23.4568C43.4447 23.3056 43.4133 23.1642 43.3938 23.0289C43.3669 22.8409 43.315 22.6314 43.2596 22.417C43.1866 22.134 43.107 21.841 43.0712 21.5796C43.0419 21.3648 43.0657 21.1815 43.0838 21.0301C43.0894 20.9829 43.0944 20.9391 43.0973 20.8988C43.0475 20.7771 42.9769 20.6817 42.998 20.7142C42.9955 20.7218 42.9941 20.7311 42.9943 20.7418C42.9797 20.737 42.9648 20.7322 42.9495 20.7273C42.7792 20.6725 42.5718 20.6083 42.3615 20.4897C42.0289 20.3028 41.8087 20.0768 41.5692 19.8589C41.3839 19.6909 41.1841 19.5266 40.9369 19.4286C40.7688 19.3618 40.5753 19.327 40.4073 19.3228C40.2583 19.3183 40.1312 19.336 40.0298 19.3505C39.8846 19.362 39.754 19.3656 39.6414 19.3562C39.5385 19.3475 39.4485 19.2996 39.3598 19.252C39.3595 19.2517 39.3591 19.2514 39.3587 19.2511C39.3527 19.2479 39.3466 19.2448 39.3406 19.2416C38.6743 19.2981 38.0167 19.3635 37.3805 19.454C37.3258 19.4709 37.2715 19.4878 37.2178 19.5047C36.9542 19.5869 36.7059 19.6727 36.5546 19.7763C36.3915 19.888 35.9613 19.9973 35.5874 20.146C35.3409 20.2423 35.1266 20.3555 35.0076 20.4646C34.9375 20.5281 34.852 20.5149 34.7668 20.505C34.7497 20.503 34.7328 20.501 34.7165 20.4996C34.5971 20.535 34.4774 20.5802 34.3735 20.6623C34.3071 20.7148 34.2433 20.7839 34.1756 20.8576C34.1163 20.9223 34.0535 20.991 33.9826 21.0554C33.917 21.115 33.7393 21.2026 33.5128 21.3162C33.3728 21.3865 33.2142 21.4668 33.0514 21.5564C32.6712 21.864 32.2951 22.1734 31.9265 22.4837C31.8727 22.5803 31.8385 22.6796 31.8296 22.7809C31.8235 22.8534 31.8288 22.9306 31.8348 23.0092C31.843 23.1162 31.8518 23.2265 31.8326 23.3349C31.8168 23.4202 31.7713 23.4845 31.717 23.4962C31.6916 23.5016 31.6645 23.4959 31.6399 23.4908C31.6117 23.4849 31.5869 23.4795 31.5709 23.4927C31.5595 23.5022 31.5569 23.524 31.5536 23.5504C31.5484 23.5927 31.5417 23.6472 31.4965 23.6847C31.3273 23.8249 31.1282 23.9698 30.9389 24.1124C30.7287 24.2705 30.5332 24.4244 30.4004 24.5619C30.2532 24.7139 29.9991 24.8784 29.81 25.0067C29.6788 25.0912 29.5812 25.1744 29.6038 25.1049C29.6112 25.072 29.6555 25.0089 29.7114 24.8103C29.6975 24.9129 29.6973 24.9987 29.6975 25.09C29.6985 25.2849 29.7086 25.4737 29.6411 25.6275C29.6273 25.6593 29.561 25.6922 29.4783 25.7374C29.4197 25.7698 29.3529 25.8058 29.2909 25.852C29.2748 26.0663 29.2649 26.2851 29.2614 26.5029C29.2699 26.5105 29.2786 26.5183 29.2875 26.5262C29.2877 26.5263 29.2879 26.5265 29.2881 26.5266C29.4892 26.7072 29.7665 26.9201 29.6375 27.2645C29.6048 27.3518 29.5356 27.4157 29.4734 27.472C29.4124 27.5277 29.3585 27.5807 29.3548 27.6452C29.3508 27.7196 29.4049 27.7988 29.4651 27.8835C29.5375 27.9851 29.6188 28.0928 29.6202 28.2204C29.6215 28.2466 29.6205 28.2732 29.6167 28.3002C29.6149 28.3131 29.6129 28.3269 29.6109 28.3413C29.5924 28.4768 29.5655 28.6781 29.4706 28.8899C29.5557 29.4352 29.6406 29.9672 29.7401 30.3932C29.7929 30.623 29.8535 30.8168 29.8916 30.9253C29.9344 31.0386 29.9144 31.0419 29.8954 31.0677C29.8894 31.106 30.133 31.2183 30.3729 31.2873C30.7229 31.393 31.1093 31.6116 31.4023 31.9278C31.6953 32.2443 31.8785 32.6325 31.8784 33.0368C31.8809 33.4402 31.6841 33.8337 31.3083 34.1222C30.9318 34.4089 30.4099 34.5669 29.8158 34.5108C29.3863 34.4596 28.9564 34.4247 28.3024 34.1363C27.4148 33.7298 26.8437 32.9646 26.5336 32.4077C26.4991 32.3568 26.4659 32.3057 26.4339 32.2541C26.2018 31.879 25.982 31.5769 25.774 31.2858C25.7262 31.2183 25.6797 31.1526 25.6342 31.0858Z" fill="white"/>
<path d="M49.2131 29.2395C48.8152 28.7378 48.6001 27.7351 48.4979 27.2155C48.4959 27.2058 48.4939 27.1961 48.4919 27.1865C48.477 27.1126 48.4608 27.0434 48.4425 26.97C48.4275 26.9113 48.412 26.8512 48.3959 26.7876C48.3075 26.4189 48.1687 25.9168 48.1272 24.8251C48.077 24.5117 48.0388 24.1984 48.013 23.8808C47.853 22.045 48.1463 20.0922 48.7823 18.4169C49.4841 16.3814 51.2372 15.1695 52.5654 14.529C52.6012 14.5074 52.6376 14.4856 52.6743 14.4639C52.8014 14.3884 52.933 14.3127 53.0656 14.2386C53.9027 13.7799 54.7458 13.5776 55.2998 13.5241C56.1574 13.4498 56.6982 13.4926 57.1425 13.5274C58.8544 13.5057 60.4718 13.6729 62.046 13.8185C63.1717 13.8786 64.1429 14.52 64.7472 14.9883C65.3821 15.4763 65.9291 15.9548 66.4888 16.4231C66.747 16.6403 67.0041 16.8558 67.2629 17.0707C67.6026 17.3545 67.889 17.6647 68.1405 17.9818C68.4624 18.3316 68.7343 18.6776 68.9662 19.0023C69.2915 19.4596 69.5401 19.8794 69.7071 20.238C70.1119 21.1039 70.3387 22.1295 70.4686 22.8822C70.4903 23.0057 70.5094 23.121 70.5273 23.2292C70.6002 23.49 70.6691 23.7512 70.7342 24.0133C70.8306 24.4166 70.8889 24.8372 70.9 25.2664C70.8833 25.3184 70.8653 25.369 70.8461 25.4217C70.5987 26.0398 70.5524 26.7608 69.9361 27.8543C69.9081 27.9005 69.8775 27.9492 69.8482 27.9943C69.5499 28.4495 69.1954 28.859 68.7595 29.2864C68.4784 29.5594 68.2764 29.6317 68.1132 29.6914C68.0653 29.7085 68.0199 29.725 67.9771 29.7439C67.8309 29.8082 67.7521 29.9581 67.6579 30.1333C67.5356 30.3607 67.3841 30.6342 67.0311 30.8091C66.4635 31.0894 66.1109 31.342 65.8703 31.5779C65.6225 31.8179 65.4846 32.0321 65.3597 32.2183C65.2837 32.33 65.2182 32.427 65.1329 32.5142C64.8645 32.793 64.353 33.032 63.9357 33.1461C63.6081 33.2403 63.0463 33.6093 62.5813 33.8857C62.4065 33.9917 62.1494 34.082 61.8385 34.1692C61.5177 34.2596 61.1417 34.3442 60.7475 34.4475C59.7477 34.6985 59.2533 34.7395 58.8696 34.8009C58.7602 34.8165 58.6603 34.8305 58.5614 34.8449C58.4899 34.8553 58.4158 34.8655 58.3387 34.8757L58.0437 34.8606C57.649 34.8341 57.2099 34.7477 56.8033 34.6208C56.1685 34.4246 55.6203 34.149 55.2221 33.9533C54.6903 33.5797 54.236 33.1893 53.8087 32.7972L53.7252 32.7248C53.3946 32.3843 53.0974 32.0421 52.8156 31.7011C52.4832 31.2978 52.3016 30.8105 52.3022 30.3463C52.303 29.8816 52.4817 29.4774 52.7949 29.2104C53.1086 28.9436 53.5356 28.8335 53.9859 28.8883C54.4362 28.9433 54.8703 29.1573 55.2039 29.4657C55.4865 29.7274 55.77 29.9755 56.0504 30.1975L55.9798 30.1363C56.4096 30.4398 56.8357 30.7169 57.2382 30.931C57.7351 31.1971 58.1686 31.3409 58.5178 31.3665L58.2238 31.3514C58.7295 31.3217 59.1971 31.3032 59.6218 31.2695C60.3381 31.2143 60.9384 31.101 61.5525 30.8803C61.617 30.8571 61.6779 30.8344 61.742 30.8093C62.2123 30.5003 62.6564 30.1271 62.9878 29.8669C63.2594 29.6535 63.4986 29.5437 63.7065 29.4443C63.8257 29.3869 63.9308 29.3352 64.0277 29.2641C64.0483 29.249 64.0683 29.2333 64.0877 29.2168C64.1492 29.1646 64.2318 29.0904 64.3296 29.0015C64.7322 28.6365 65.4002 28.0133 66.045 27.5392C66.3315 27.3294 66.6781 27.1066 66.9763 26.8942C67.2341 26.7118 67.4543 26.5334 67.5666 26.4149C67.6323 26.3521 67.6825 26.2675 67.6961 26.2002C67.7603 25.9007 67.882 25.5459 67.9242 25.1957C67.9535 24.9674 67.951 24.7455 67.9085 24.5786C67.8849 24.4804 67.8556 24.3937 67.82 24.329C67.6825 24.077 67.6641 23.8429 67.6275 23.4941C67.6016 23.2527 67.5669 22.9556 67.4669 22.5692C67.3509 22.1242 67.296 21.8027 67.2443 21.5301C67.1702 21.1485 67.103 20.8566 66.8319 20.5253C66.5305 20.1584 66.2344 19.8143 66.0564 19.5358C65.9756 19.4078 65.8617 19.2821 65.7424 19.1712C65.6941 19.1263 65.6439 19.0827 65.5954 19.0421C65.4267 18.9004 65.2653 18.7566 65.1272 18.6057C64.9611 18.4246 64.8624 18.2371 64.7704 18.0678C64.7421 18.0153 64.7172 17.967 64.6888 17.9192C64.5395 17.7959 64.3948 17.6779 64.2445 17.558C64.2126 17.5485 64.1798 17.5402 64.1442 17.5301C63.9662 17.4805 63.7503 17.4224 63.5287 17.308C63.1802 17.1293 62.945 16.9056 62.7196 16.7198C62.5431 16.5753 62.3811 16.4597 62.1915 16.4317C62.1122 16.42 62.0235 16.422 61.9191 16.4345C61.8138 16.4408 61.7017 16.4483 61.5954 16.456C61.1875 16.4848 60.789 16.516 60.5162 16.477C60.4129 16.4623 60.3277 16.4095 60.2411 16.3571C60.2407 16.3568 60.2403 16.3565 60.2399 16.3562C60.2341 16.3526 60.2282 16.3491 60.2223 16.3456C59.5541 16.3655 58.8927 16.4032 58.2464 16.469C58.1907 16.4837 58.1348 16.4985 58.0793 16.5133C57.8087 16.5853 57.5507 16.6614 57.39 16.7587C57.215 16.8637 56.7672 16.9551 56.3334 17.0832C56.0494 17.1661 55.7747 17.2649 55.5787 17.3719C55.4646 17.434 55.3404 17.4187 55.2152 17.4069C55.0987 17.3958 54.9794 17.3889 54.8896 17.4454C54.8586 17.4648 54.8309 17.4913 54.8059 17.5205C54.7842 17.5394 54.7623 17.5591 54.7402 17.5792C54.679 17.635 54.6158 17.6938 54.547 17.7471C54.4831 17.7968 54.315 17.8586 54.1125 17.9416C53.9874 17.9929 53.8493 18.0526 53.7146 18.1222C53.408 18.377 53.1633 18.6362 52.9919 18.8886C52.9862 18.9665 53.0012 19.044 53.0394 19.1199C53.0667 19.1743 53.1068 19.2301 53.1493 19.2854C53.2072 19.3606 53.2698 19.4351 53.315 19.5038C53.3502 19.5576 53.3561 19.5943 53.3251 19.601C53.3107 19.6041 53.2886 19.6007 53.2684 19.598C53.2453 19.5949 53.2246 19.5925 53.2212 19.6007C53.2187 19.6066 53.2298 19.6193 53.2433 19.6345C53.2649 19.659 53.2933 19.6896 53.2851 19.7117C53.2687 19.7558 53.2486 19.8017 53.2277 19.8519C53.1917 19.9503 53.1541 20.0521 53.1199 20.1478C53.0375 20.3782 52.9685 20.5975 52.9399 20.7792C52.9075 20.9822 52.7964 21.2542 52.7011 21.5382C52.6344 21.7356 52.5751 21.9376 52.5471 22.115C52.5195 22.2885 52.5446 22.4719 52.5744 22.6491C52.61 22.8605 52.6519 23.0615 52.6108 23.2379C52.6025 23.2744 52.5425 23.3202 52.4682 23.3814C52.4155 23.4243 52.3557 23.4759 52.3016 23.5327C52.3203 23.7622 52.3439 23.9909 52.3732 24.2227C52.3827 24.2295 52.3925 24.2365 52.4025 24.2435C52.4027 24.2436 52.4029 24.2437 52.4031 24.2438C52.6289 24.4056 52.9362 24.5999 52.8555 24.9855C52.8352 25.0838 52.775 25.16 52.7204 25.2267C52.6671 25.2929 52.6198 25.3532 52.6248 25.4239C52.6308 25.5054 52.6939 25.5824 52.7647 25.6689C52.7806 25.6882 52.7968 25.708 52.8129 25.7282C52.9017 25.8506 52.9823 25.9837 52.9712 26.144C52.9703 26.157 52.9692 26.1709 52.9683 26.1854C52.9596 26.3234 52.9463 26.5244 52.8672 26.7438C52.9915 27.2825 53.1195 27.8138 53.2506 28.2189C53.2957 28.3604 53.3429 28.4837 53.3668 28.5508C53.3854 28.6206 53.3997 28.6113 53.2099 28.5134C53.0539 28.4693 53.3104 28.5994 53.4962 28.6549C53.7028 28.7232 53.9411 28.7849 54.1859 28.8401C54.6031 28.9347 55.0115 29.1529 55.3141 29.4703C55.6152 29.7881 55.7957 30.1778 55.7939 30.582C55.7954 30.9855 55.5891 31.3771 55.2147 31.6644C54.8404 31.9512 54.3332 32.1073 53.798 32.0883C53.4824 32.0762 53.1629 32.0566 52.81 32.0111C52.4368 31.9454 52.1361 31.9584 51.4215 31.611C50.7851 31.2498 50.507 30.8664 50.2765 30.5636C50.2314 30.5101 50.1864 30.4531 50.1468 30.4013C49.8505 30.0086 49.6072 29.7188 49.3708 29.4339C49.3168 29.3682 49.2643 29.304 49.2131 29.2395Z" fill="white"/>
<path d="M77.9537 21.9801C77.957 21.9956 77.96 22.0115 77.9627 22.0278C78.0534 22.5361 77.8683 23.3686 77.7875 23.8302C77.786 23.8391 77.7845 23.848 77.7829 23.8569C77.7624 23.9719 77.7511 24.0768 77.7393 24.2003C77.7145 24.4988 77.6666 24.8986 77.5649 25.6887C77.5775 25.9167 77.5949 26.1344 77.6181 26.3462C77.7535 27.3762 77.8641 27.8233 78.5206 28.8227C79.2239 29.9393 80.058 30.7172 81.3865 31.2697C81.4192 31.2798 81.4501 31.2891 81.486 31.3C81.622 31.3416 81.7675 31.3821 81.9861 31.457C82.3158 31.5671 82.8506 31.6457 83.2225 31.7298C83.8233 31.8666 84.2843 31.9373 84.6598 31.9963C86.12 32.0413 87.6697 31.9017 89.1709 31.6362C89.668 31.5589 90.125 31.3328 90.6285 30.9224C90.8408 30.7502 91.0579 30.5496 91.284 30.331C91.44 30.1854 91.5975 29.9555 91.7303 29.6722C91.9499 29.2062 92.1058 28.6196 92.2162 28.0085C92.237 27.7561 92.2459 27.508 92.2495 27.2679C92.2479 27.1816 92.243 27.0999 92.2357 27.0217C92.2022 26.6641 92.1188 26.3826 92.0567 26.1318C91.9171 25.5429 91.6448 24.7004 91.398 24.0385C91.3585 23.9315 91.3198 23.829 91.2829 23.7339C91.1416 23.4668 90.9947 23.1966 90.8456 22.9246C90.7332 22.7235 90.6139 22.5313 90.4858 22.3439C90.483 22.308 90.4803 22.2714 90.4773 22.2337C90.4373 21.7672 90.1372 21.3185 89.5521 20.7241C89.2949 20.4654 88.98 20.1802 88.5836 19.8561C88.3278 19.6482 88.234 19.482 88.1555 19.3437C88.1325 19.3032 88.1105 19.2654 88.0856 19.2301C88.0006 19.1097 87.8463 19.0776 87.6648 19.0439C87.4284 18.9998 87.1485 18.9542 86.8811 18.6956C86.4809 18.3106 86.1268 18.0957 85.8302 17.9692C85.5719 17.8682 85.3475 17.8944 85.1626 17.9219C85.0615 17.9377 84.9671 17.9538 84.8779 17.9543C84.588 17.9534 84.1883 17.8086 83.8608 17.673C83.6041 17.5617 83.0451 17.6056 82.6243 17.7073C82.465 17.7447 82.2497 17.7475 81.994 17.7578C81.7299 17.7683 81.4203 17.7872 81.0942 17.8585C80.2699 18.0417 79.8424 18.1684 79.5017 18.2672C79.404 18.2961 79.3155 18.3231 79.2272 18.3514C79.0226 18.4175 78.754 18.4976 78.5761 18.57L78.8835 18.4542C78.8277 18.4894 78.7714 18.5267 78.7153 18.5659C78.4414 18.756 78.1726 19.0001 77.9886 19.2209C77.3957 19.6565 76.8062 20.2544 76.2562 20.9298C76.2324 20.959 76.2078 20.9876 76.1824 21.0158L76.2639 20.886C76.0717 21.1246 75.8818 21.1387 75.5651 21.3319C75.2267 21.5377 74.8166 21.7408 74.4059 21.6981C73.9988 21.6565 73.6051 21.4583 73.3644 20.9893C73.1338 20.5642 73.1863 19.8047 73.4408 19.2795L73.509 19.1708C73.5307 19.1308 73.5535 19.0912 73.5774 19.0523C74.1526 18.1219 74.8247 17.1961 75.7322 16.3736C76.1979 15.9538 76.7295 15.5646 77.3335 15.2523L77.6284 15.1412C78.4888 14.8924 79.1895 14.774 79.9627 14.6735C80.8838 14.5601 81.8114 14.5056 82.7667 14.5336C82.865 14.5366 82.9637 14.5406 83.0625 14.5455C83.87 14.465 84.7272 14.4735 85.3568 14.579C85.8756 14.6637 86.2522 14.8407 86.5664 15.0108C86.7827 15.1281 86.9734 15.2439 87.1778 15.3443C87.1791 15.3449 87.1804 15.3455 87.1816 15.3461C87.2603 15.3838 87.3713 15.4339 87.5052 15.495C88.0492 15.743 89.0226 16.2013 89.8135 16.8617C90.1628 17.1515 90.5394 17.5392 90.873 17.9319C91.3543 18.4925 91.736 19.0633 91.9846 19.3011C92.4275 19.7178 92.8013 20.3207 93.071 20.8683C93.216 21.1596 93.3344 21.4322 93.4421 21.6609C93.5184 21.8234 93.5931 21.9557 93.6698 22.0445C93.8764 22.2853 93.96 22.5367 94.0814 22.9221C94.1648 23.1903 94.2677 23.5186 94.4282 23.9793C94.6125 24.513 94.6775 24.941 94.7107 25.3061C94.7537 25.8252 94.7575 26.2169 94.8473 26.8133C94.8878 27.0978 94.8995 27.3925 94.883 27.6718C94.869 27.9957 94.8276 28.3079 94.7537 28.5743C94.695 28.786 94.6435 29.0336 94.579 29.2951C94.4941 29.6403 94.384 30.0114 94.2147 30.3375C94.0755 30.6059 93.8925 30.805 93.7224 30.9708C93.669 31.0232 93.6173 31.0716 93.5673 31.1197C93.4411 31.3345 93.2948 31.5487 93.122 31.7536C93.1035 31.7949 93.0834 31.8391 93.0613 31.8848C93.0377 31.9334 93.0113 31.9846 92.9817 32.0373C92.9122 32.1932 92.8214 32.3729 92.6741 32.5601C92.3779 32.9354 92.001 33.1973 91.5636 33.4315C91.2216 33.6134 90.8432 33.78 90.4002 33.9599C90.2018 34.0403 89.9821 34.1243 89.7519 34.1965C89.6585 34.2282 89.5571 34.2621 89.4624 34.2939C89.0434 34.434 88.6232 34.5622 88.3213 34.5852C88.2083 34.5938 88.1041 34.5608 88.0006 34.5276C88.0001 34.5274 87.9997 34.5271 87.9992 34.5269C87.9923 34.5246 87.9853 34.5224 87.9784 34.5202C87.2618 34.6787 86.5375 34.8177 85.7979 34.9266C85.7346 34.945 85.6703 34.9631 85.6065 34.9807C85.2946 35.0667 84.986 35.1425 84.7835 35.2346C84.5648 35.3346 84 35.4067 83.3759 35.4331C82.967 35.4513 82.5305 35.4481 82.1545 35.4417C81.9336 35.4381 81.7332 35.3484 81.5301 35.2474C81.3374 35.1523 81.1448 35.0487 80.9069 34.9839C80.8468 34.9674 80.7832 34.9529 80.7165 34.9382C80.6885 34.9376 80.6485 34.9353 80.6041 34.9323C80.5251 34.9268 80.4266 34.9171 80.3221 34.8961C80.2246 34.8761 80.0144 34.7783 79.7291 34.632C79.5547 34.5422 79.3546 34.434 79.1452 34.3165C78.554 34.0846 77.9726 33.7846 77.4309 33.4209C77.2958 33.3778 77.1644 33.3503 77.044 33.351C76.9572 33.3511 76.8696 33.3633 76.7812 33.3761C76.6609 33.3933 76.5335 33.4077 76.3938 33.3837C76.2856 33.3658 76.1859 33.3064 76.1475 33.2375C76.1299 33.2058 76.1251 33.1721 76.1209 33.1417C76.116 33.1068 76.1117 33.0758 76.0897 33.0553C76.0738 33.0406 76.0467 33.036 76.0135 33.0299C75.9601 33.0197 75.8925 33.0076 75.8297 32.9458C75.5955 32.716 75.3567 32.4309 75.1431 32.1459C74.9727 31.9191 74.8181 31.6941 74.6778 31.4912C74.6349 31.4291 74.5889 31.3651 74.5433 31.3048C74.3671 31.0719 74.1333 30.6243 73.9369 30.121C73.8 29.7731 73.688 29.4117 73.5953 29.1087C73.5039 28.8121 73.3828 28.5206 73.2796 28.2336C73.1556 27.8891 73.06 27.5631 73.0689 27.2757C73.0709 27.2185 73.123 27.1401 73.1894 27.0427C73.2364 26.9731 73.2915 26.9 73.341 26.8152C73.3037 26.475 73.2847 26.1447 73.2784 25.8169C73.2695 25.8058 73.2605 25.7943 73.2513 25.7828C73.2511 25.7826 73.2509 25.7824 73.2507 25.7822C73.0435 25.5173 72.7659 25.1463 72.9459 24.6397C72.9917 24.5143 73.0717 24.4367 73.1437 24.3672C73.2147 24.2973 73.278 24.2414 73.296 24.1517C73.3164 24.0511 73.2835 23.9216 73.2484 23.7882C73.199 23.6029 73.1476 23.3794 73.233 23.1856C73.2389 23.1721 73.2453 23.1575 73.2518 23.1423C73.3135 22.9961 73.406 22.7861 73.5706 22.5871C73.6454 22.1741 73.7295 21.7749 73.8238 21.3668C73.8736 21.1539 73.924 20.9457 73.9763 20.7335C74.2299 19.7263 74.481 18.7482 74.8778 17.6556C74.9602 17.4369 75.0692 17.2258 75.2344 16.9936C75.318 16.8783 75.4124 16.7589 75.5541 16.6128C75.7101 16.4799 75.8436 16.2455 76.4327 16.0634C76.5332 16.0835 76.6302 16.1113 76.723 16.1463C77.1784 16.3219 77.5361 16.667 77.5255 17.0783C77.5848 17.4774 77.5506 17.8724 77.363 18.2474C77.3265 18.3217 77.2859 18.3935 77.2408 18.4627C77.8095 18.28 77.8381 18.1407 77.9209 18.129C77.9841 18.1056 78.0057 18.1358 78.0224 18.1778C78.0518 18.267 78.0458 18.4109 78.0205 18.5637C77.9124 19.2066 77.8369 19.9886 77.7676 20.7543C77.769 20.7949 77.77 20.836 77.7705 20.8772C77.7747 21.1833 77.8406 21.479 77.9078 21.7759C77.9233 21.8431 77.9389 21.9112 77.9537 21.9801Z" fill="white"/>
<path d="M5.8539 4.48937C5.94491 4.62308 5.97609 4.80862 5.97915 5.0098C5.9826 5.22629 5.94993 5.45811 5.92719 5.61745C5.92649 5.62302 5.92579 5.6286 5.92509 5.63419C5.91496 5.708 5.91242 5.77204 5.90968 5.85077C5.90316 6.03912 5.89424 6.29622 5.77235 6.82345C5.77735 6.97877 5.78028 7.12905 5.78081 7.28616C5.78634 8.94742 5.63518 10.6116 5.46004 12.2746C5.46126 12.2955 5.46251 12.3168 5.46377 12.3383C5.48818 12.7552 5.51919 13.2708 5.45293 13.5961C5.36866 14.0099 5.28956 14.2911 5.22121 14.5223C5.0867 15.8435 4.97482 17.1644 4.95576 18.4813C4.9499 18.8967 4.95317 19.3055 4.96798 19.7192C4.97615 19.9474 4.98737 20.1827 5.00096 20.4095C5.00985 20.5593 5.01978 20.7069 5.0307 20.8524C5.08264 21.0743 5.14215 21.2752 5.19814 21.47C5.27646 21.7366 5.34724 21.9783 5.37706 22.1751C5.44889 22.6527 5.41146 23.2009 5.3866 23.6097C5.38236 23.6744 5.37873 23.7401 5.37572 23.798C5.42482 24.1142 5.47795 24.4365 5.53306 24.7519C5.51881 24.7748 5.50389 24.7978 5.48859 24.8212C5.29764 25.1107 5.32894 25.4471 5.3848 25.9751C5.40911 26.2038 5.43841 26.4712 5.45749 26.7845C5.46982 26.9862 5.39762 27.101 5.33838 27.1923C5.32095 27.219 5.30476 27.2448 5.29229 27.2706C5.24962 27.3598 5.31608 27.4343 5.3957 27.5294C5.49861 27.6494 5.62212 27.7905 5.55522 28.0107C5.34232 28.7083 5.59102 28.9722 5.77699 29.1693C5.8318 29.2279 5.88108 29.2787 5.91294 29.3364C5.92555 29.359 5.93612 29.3829 5.94482 29.4078L5.94911 29.4382C6.0089 29.6273 5.97291 29.88 5.90824 30.0796C5.85023 30.2622 5.9695 30.5936 6.09919 30.8443C6.14812 30.9377 6.16423 31.0729 6.18208 31.2288C6.20079 31.3922 6.22159 31.5802 6.28466 31.7771C6.44395 32.2761 6.52046 32.543 6.5821 32.7593C6.59956 32.8203 6.6155 32.8771 6.63195 32.935C6.6836 33.1142 6.73243 33.3427 6.78014 33.5705C6.83752 33.8458 6.89382 34.1265 6.95622 34.3405C6.93834 34.9306 6.91941 35.3895 6.84105 36.1805C6.83832 36.2066 6.83497 36.2337 6.83069 36.2632L6.80028 36.4828C6.72292 36.785 6.51175 37.1417 6.30865 37.303C6.10343 37.476 5.90319 37.5352 5.70905 37.5443C5.30363 37.5556 4.93988 37.3549 4.6377 37.077C4.3354 36.797 4.12938 36.4383 3.98547 36.1337C3.91532 35.9906 3.85798 35.866 3.7874 35.8123C3.71929 35.7494 3.62661 35.8216 3.60466 35.8347L3.5792 36.0186C3.57678 36.0234 3.57502 36.0241 3.57365 36.022C3.51569 35.6727 3.41495 35.0397 3.32869 34.5228C3.2212 33.865 3.12154 33.2043 3.05732 32.5385C3.01224 32.072 2.97299 31.6065 2.93741 31.1387C2.93376 31.0906 2.93012 31.0415 2.92662 30.994C2.78074 30.6149 2.6408 30.2367 2.57294 29.9682C2.56531 29.9379 2.5593 29.9085 2.55466 29.8799L2.56055 29.9217C2.52638 29.7352 2.55009 29.5838 2.57066 29.4489C2.58747 29.3444 2.60196 29.248 2.58463 29.1586C2.57513 29.1091 2.5595 29.0437 2.54071 28.9638C2.46348 28.636 2.33753 28.0816 2.37568 27.5541C2.3926 27.3218 2.44901 27.0482 2.50439 26.7866C2.58358 26.4139 2.66127 26.0719 2.61155 25.9039C2.52462 25.6149 2.54462 25.2683 2.56438 24.9648C2.58325 24.6765 2.60121 24.4238 2.52214 24.2856C2.42777 24.1222 2.45045 23.9729 2.48503 23.7556C2.509 23.6041 2.53845 23.4185 2.5395 23.1677C2.54091 22.8806 2.58624 22.6711 2.62528 22.498C2.67999 22.2487 2.72192 22.0677 2.61299 21.7984C2.49218 21.5028 2.41032 21.1899 2.43271 20.9376C2.44299 20.8249 2.4338 20.6957 2.42435 20.5594C2.42331 20.5443 2.42226 20.5292 2.42124 20.514C2.41019 20.3515 2.40199 20.1798 2.43084 20.0204C2.45687 19.8795 2.53258 19.76 2.59964 19.6538C2.62057 19.6207 2.64054 19.5889 2.65801 19.5581C2.65316 19.4466 2.64794 19.3352 2.64191 19.2227C2.62846 19.2049 2.61361 19.1862 2.59827 19.1667C2.52127 19.0676 2.427 18.9493 2.37731 18.7982C2.29865 18.5575 2.33735 18.3472 2.37866 18.1215C2.41084 17.9462 2.44468 17.7665 2.42569 17.5585C2.41276 17.4178 2.37624 17.2587 2.34019 17.0995C2.28665 16.8638 2.23431 16.6319 2.26096 16.4683C2.27096 16.4074 2.32006 16.3542 2.36892 16.3015C2.36922 16.3013 2.36952 16.3011 2.36982 16.3008C2.37314 16.2973 2.37638 16.2937 2.37968 16.2901C2.33338 15.8954 2.28391 15.5012 2.23282 15.1074C2.21934 15.0733 2.20604 15.039 2.19294 15.0049C2.12895 14.8382 2.06692 14.6766 1.98086 14.5717C1.88757 14.4582 1.82996 14.1695 1.76966 13.8656C1.73016 13.6665 1.68953 13.4604 1.63666 13.2929C1.60576 13.1947 1.65633 13.1004 1.7085 13.0037C1.75717 12.9134 1.80716 12.8211 1.79339 12.7206C1.78648 12.6701 1.76445 12.6158 1.7409 12.558C1.72017 12.507 1.69821 12.4532 1.68451 12.3967C1.67182 12.3442 1.69874 12.2276 1.73304 12.0763C1.75425 11.9831 1.77821 11.8774 1.79774 11.7669C1.7627 11.4739 1.72924 11.1833 1.69813 10.8899C1.6523 10.8293 1.59303 10.777 1.51715 10.7359C1.46271 10.7063 1.39772 10.6815 1.33128 10.6557C1.24086 10.6203 1.14742 10.5838 1.07276 10.5331C1.01442 10.4934 0.990945 10.4465 1.01481 10.4147C1.02594 10.3999 1.04704 10.3884 1.06612 10.378C1.08798 10.3661 1.10741 10.3555 1.10676 10.3427C1.10625 10.3335 1.09064 10.324 1.07175 10.3124C1.04158 10.2938 1.00263 10.2696 1.00099 10.2324C0.994888 10.0945 1.00621 9.93387 1.01748 9.78014C1.03002 9.61028 1.04221 9.4381 1.02987 9.30556C1.01605 9.15831 1.07255 8.93901 1.12903 8.72743C1.16841 8.57751 1.20763 8.42615 1.22345 8.29917C1.23896 8.17536 1.20648 8.04061 1.17484 7.91524C1.13686 7.76587 1.1002 7.61565 1.15036 7.49212C1.16055 7.46702 1.22298 7.43574 1.30109 7.3967C1.35645 7.36876 1.41976 7.33822 1.47808 7.30053C1.47754 7.13895 1.47963 6.98508 1.48392 6.82495C1.47542 6.81933 1.46677 6.81354 1.45793 6.80774C1.45773 6.80765 1.45753 6.80756 1.45732 6.80747C1.25793 6.67599 0.985219 6.50279 1.14701 6.24992C1.18814 6.1866 1.2643 6.14713 1.33284 6.11164C1.40015 6.07695 1.46038 6.04335 1.47296 5.99677C1.4872 5.94357 1.44568 5.88143 1.40053 5.81466C1.33715 5.72311 1.26632 5.61244 1.33184 5.50687C1.33631 5.49963 1.34122 5.49185 1.34614 5.48376C1.39275 5.40835 1.46169 5.29251 1.60067 5.17817C1.60654 5.12405 1.61258 5.07069 1.61878 5.01812C1.65107 4.72954 1.6876 4.45477 1.72692 4.1687C1.80504 3.60588 1.89425 3.04384 1.98344 2.48521C2.02733 2.20898 2.21641 1.95032 2.51949 1.75534C2.82301 1.56335 3.21335 1.45207 3.61733 1.453C4.0212 1.4513 4.41168 1.56034 4.71588 1.75129C5.01971 1.94508 5.20973 2.20298 5.25467 2.47903C5.3271 2.92481 5.39964 3.36582 5.46656 3.81384C5.47499 3.83798 5.48315 3.86162 5.4908 3.88401C5.54773 4.05589 5.66172 4.21512 5.77587 4.37998C5.80209 4.41731 5.82836 4.45237 5.8539 4.48937Z" fill="white"/>
<path d="M47.3817 16.4313C47.5014 16.5388 47.5171 16.706 47.5015 16.8669C47.4918 16.9606 47.4701 17.0581 47.4536 17.1268C47.4529 17.1301 47.4522 17.1334 47.4515 17.1368C47.4412 17.18 47.4386 17.2214 47.4358 17.2708C47.429 17.387 47.4197 17.5422 47.2969 17.8698C47.3017 17.9629 47.3043 18.0623 47.3045 18.1545C47.3068 19.1812 47.1502 20.2038 46.9657 21.2284C46.9668 21.2413 46.968 21.2545 46.9691 21.2677C46.9912 21.5247 47.0189 21.8418 46.9504 22.0423C46.8632 22.2973 46.782 22.4706 46.7118 22.6132C46.5667 23.4271 46.4413 24.2404 46.4035 25.0513C46.3917 25.3065 46.3886 25.5586 46.3962 25.8122C46.4032 26.0426 46.4172 26.2783 46.4374 26.5078C46.441 26.5176 46.4446 26.5274 46.4482 26.5372C46.493 26.6613 46.5439 26.7762 46.5915 26.8812C46.6641 27.047 46.7289 27.1863 46.7543 27.3083C46.8149 27.5962 46.7641 27.9317 46.7286 28.1779C46.7226 28.2168 46.7174 28.2575 46.7128 28.2927C46.7537 28.4843 46.7977 28.6743 46.844 28.8644C46.8292 28.8788 46.8137 28.8933 46.7978 28.908C46.599 29.0879 46.6213 29.2962 46.6611 29.6098C46.6787 29.7478 46.6995 29.9049 46.7091 30.0938C46.715 30.2136 46.6398 30.288 46.5783 30.3481C46.5602 30.3658 46.5433 30.3823 46.5301 30.3984C46.4846 30.4522 46.5492 30.4983 46.6249 30.5467C46.723 30.6087 46.8415 30.6857 46.7682 30.822C46.5362 31.2594 46.776 31.3949 46.9535 31.4856C47.0059 31.5133 47.0534 31.5384 47.083 31.5665C47.1795 31.6606 47.1437 31.8304 47.0757 31.9748C47.0215 32.0903 47.1469 32.2578 47.2879 32.4043C47.3132 32.4295 47.3325 32.467 47.3481 32.5092L47.3662 32.597C47.3788 32.6362 47.387 32.6798 47.396 32.7281C47.4138 32.8236 47.4346 32.9351 47.4981 33.0457C47.6587 33.3255 47.74 33.4729 47.8052 33.5911C47.8237 33.6245 47.841 33.6565 47.8585 33.6871C47.914 33.7855 47.9686 33.9102 48.0241 34.0338C48.0905 34.182 48.1587 34.329 48.2309 34.4312C48.2374 34.5692 48.2436 34.7093 48.2433 34.814L48.2737 34.9455C48.2944 35.2297 48.2815 35.4243 48.2722 35.615C48.2618 35.7943 48.0982 35.9733 47.8118 36.1302C47.5251 36.2868 47.1406 36.4065 46.7327 36.4625C46.3248 36.5178 45.9218 36.5037 45.6035 36.4198C45.2855 36.3366 45.0807 36.1899 45.027 36.0274C44.9713 35.8586 44.9145 35.6918 44.8646 35.6053L44.8903 35.7166C44.8072 35.5197 44.7404 35.3508 44.6772 35.1802C44.5179 34.7487 44.3932 34.3313 44.3139 33.9044C44.2675 33.654 44.2296 33.4034 44.1984 33.1518L44.2205 33.2581C44.215 33.2248 44.2078 33.1853 44.1999 33.1425C44.1948 33.1151 44.1898 33.0875 44.184 33.057C44.0243 32.8448 43.8668 32.592 43.7924 32.4103C43.73 32.2576 43.7591 32.133 43.784 32.0242C43.8014 31.9505 43.8174 31.8867 43.801 31.8259C43.7925 31.7949 43.778 31.7527 43.7605 31.7002C43.6892 31.4891 43.5749 31.1282 43.6256 30.7836C43.6476 30.6293 43.7102 30.4471 43.7723 30.2785C43.8602 30.0323 43.9464 29.8107 43.9014 29.7079C43.8219 29.525 43.8509 29.3063 43.8783 29.1134C43.9042 28.9288 43.9284 28.7684 43.853 28.6851C43.7631 28.5872 43.7891 28.4888 43.8289 28.3523C43.8566 28.2587 43.89 28.1346 43.8973 27.982C43.9053 27.8012 43.9554 27.6699 43.9983 27.5605C44.0586 27.4032 44.1045 27.29 44.0015 27.1237C43.8989 26.9555 43.8281 26.7887 43.834 26.6372C43.8348 26.6205 43.8365 26.6042 43.8394 26.5881C43.852 26.518 43.8453 26.4375 43.8385 26.3528C43.8296 26.2444 43.8204 26.126 43.855 26.0194C43.8835 25.9318 43.9612 25.8569 44.03 25.7904C44.0515 25.7696 44.072 25.7499 44.0899 25.7311C44.0869 25.6625 44.0835 25.5932 44.0792 25.5235C44.0661 25.5126 44.0515 25.5011 44.0365 25.489C43.9611 25.4284 43.8686 25.3564 43.8212 25.2628C43.7461 25.1135 43.7877 24.9846 43.832 24.844C43.8665 24.7364 43.9027 24.6242 43.8863 24.4959C43.8751 24.4095 43.8404 24.3109 43.8062 24.2126C43.7554 24.0677 43.7056 23.9239 43.734 23.8231C43.7446 23.7854 43.7942 23.7524 43.8436 23.7197C43.8439 23.7195 43.8442 23.7194 43.8445 23.7192C43.8479 23.717 43.8512 23.7148 43.8545 23.7126C43.8122 23.4686 43.7665 23.2256 43.7188 22.9825C43.7056 22.9616 43.6926 22.9403 43.6798 22.9193C43.6172 22.8165 43.5565 22.717 43.4713 22.6524C43.3789 22.5825 43.3236 22.4044 43.2654 22.2168C43.2274 22.0939 43.1881 21.9668 43.1364 21.8634C43.1061 21.8029 43.1573 21.7445 43.21 21.6847C43.2593 21.6288 43.3098 21.5716 43.2967 21.5098C43.29 21.4787 43.2683 21.4451 43.2451 21.4094C43.2247 21.378 43.203 21.3447 43.1897 21.3099C43.1773 21.2774 43.2048 21.2056 43.24 21.1121C43.2617 21.0545 43.2862 20.9891 43.3063 20.9208C43.2727 20.7404 43.2406 20.5611 43.2108 20.3797C43.1652 20.3422 43.1062 20.3099 43.0305 20.2846C42.9762 20.2664 42.9113 20.251 42.8449 20.2352C42.7547 20.2137 42.6614 20.1917 42.5869 20.1603C42.5288 20.1358 42.5055 20.1067 42.5295 20.087C42.5407 20.0778 42.5618 20.0707 42.5809 20.0643C42.6028 20.0569 42.6223 20.0503 42.6217 20.0424C42.6212 20.0367 42.6057 20.0308 42.5868 20.0236C42.5567 20.0121 42.5179 19.9972 42.5164 19.9742C42.5108 19.8892 42.5227 19.7905 42.5345 19.695C42.5476 19.5893 42.5604 19.4848 42.5485 19.402C42.5351 19.3099 42.5923 19.177 42.6494 19.0448C42.6892 18.9537 42.7288 18.8595 42.7449 18.7805C42.7607 18.7031 42.7286 18.6229 42.6972 18.5439C42.6596 18.4495 42.6233 18.3615 42.6737 18.283C42.6839 18.2673 42.7464 18.2478 42.8246 18.2235C42.88 18.2062 42.9434 18.1864 43.0018 18.164C43.0016 18.0691 43.004 17.9668 43.0085 17.8713C43 17.8679 42.9914 17.8644 42.9826 17.8609C42.9824 17.8608 42.9822 17.8608 42.982 17.8607C42.7828 17.7813 42.5104 17.6711 42.6725 17.5169C42.7138 17.4771 42.79 17.4524 42.8586 17.4301C42.9259 17.4083 42.9862 17.3888 42.9989 17.3607C43.0132 17.3296 42.9717 17.2898 42.9267 17.2479C42.8634 17.1883 42.7927 17.1262 42.8584 17.059C42.8629 17.0544 42.8678 17.0495 42.8727 17.0444C42.9161 16.9994 42.9788 16.9353 43.0989 16.8722C43.1082 16.8671 43.1177 16.8619 43.1276 16.8568C43.1645 16.6484 43.2078 16.4399 43.2551 16.2328C43.3338 15.8884 43.4237 15.541 43.5135 15.1942C43.5577 15.0279 43.7471 14.8635 44.0504 14.7451C44.3542 14.6263 44.7446 14.5583 45.1486 14.5586C45.5525 14.5579 45.9428 14.6244 46.2468 14.7426C46.5504 14.8602 46.7401 15.0241 46.7848 15.1904C46.8567 15.4639 46.9287 15.7423 46.9951 16.0137C47.0035 16.028 47.0116 16.0424 47.0193 16.0569C47.076 16.1646 47.1898 16.2659 47.3037 16.3622C47.3299 16.3849 47.3562 16.4079 47.3817 16.4313Z" fill="white"/>
<path d="M72.6138 4.09463C72.7482 4.29835 72.7522 4.61765 72.7277 4.9088C72.7168 5.03134 72.7003 5.14964 72.6871 5.24592C72.6864 5.25166 72.6857 5.25741 72.685 5.26316C72.6748 5.33611 72.6723 5.40199 72.6695 5.4828C72.663 5.67777 72.654 5.93615 72.5317 6.47614C72.5365 6.6345 72.5393 6.78805 72.5396 6.94846C72.5431 8.64514 72.386 10.3464 72.198 12.0457C72.1991 12.0672 72.2002 12.089 72.2012 12.1111C72.2224 12.5369 72.2487 13.0653 72.1791 13.3975C72.0907 13.8196 72.0083 14.1072 71.9372 14.3422C71.7867 15.6921 71.6535 17.0424 71.6033 18.3912C71.5876 18.8147 71.5802 19.2359 71.583 19.6596C71.5852 20.008 71.5928 20.3712 71.6052 20.7181C71.6065 20.7544 71.6078 20.7903 71.6091 20.826C71.6531 21.0509 71.7051 21.2693 71.7533 21.4634C71.8212 21.7475 71.8817 21.9907 71.903 22.1982C71.9543 22.6928 71.8908 23.2529 71.8459 23.668C71.8385 23.7369 71.8315 23.7971 71.8258 23.8588C71.8594 24.1854 71.8963 24.5101 71.9377 24.8275C71.9225 24.8499 71.9066 24.8719 71.8903 24.8939C71.6994 25.1601 71.7069 25.4485 71.7415 25.9613L71.7425 25.9814C71.7441 26.0143 71.7458 26.048 71.7475 26.0827C71.7594 26.3242 71.7724 26.604 71.7691 26.9332C71.767 27.1462 71.6858 27.2568 71.6195 27.3487C71.6001 27.3754 71.5818 27.4005 71.5673 27.4257C71.5174 27.5125 71.5776 27.6003 71.6486 27.7035C71.7407 27.8386 71.8513 27.9995 71.7633 28.2197C71.483 28.9217 71.6966 29.2201 71.8586 29.4463C71.906 29.5126 71.9489 29.5732 71.9736 29.635C72.0534 29.8369 71.9881 30.1285 71.8933 30.3508C71.8181 30.5263 71.9065 30.8721 72.0141 31.133C72.0547 31.2315 72.0592 31.3665 72.0641 31.525C72.0692 31.6893 72.0748 31.8793 72.1226 32.0814C72.2433 32.5924 72.3021 32.864 72.3493 33.0824C72.3627 33.1446 72.375 33.2026 72.3877 33.2605C72.4279 33.4436 72.4628 33.6711 72.498 33.9013C72.5099 33.979 72.5219 34.057 72.5341 34.1337L72.5337 34.1194C72.5661 34.3114 72.6008 34.4947 72.6409 34.6436C72.6092 35.1877 72.57 35.7321 72.5347 36.2808C72.5161 36.5626 72.3462 36.8426 72.0531 37.0591C71.7597 37.2755 71.3692 37.4099 70.9581 37.4323C70.547 37.4546 70.1442 37.3638 69.8291 37.1794C69.5143 36.995 69.3149 36.7312 69.2676 36.4464C69.173 35.8727 69.082 35.2943 69.0095 34.7154C68.9892 34.5537 68.9704 34.392 68.9532 34.2303L68.9528 34.2172C68.8994 33.6816 68.8607 33.1455 68.8477 32.6093C68.8359 32.1225 68.8336 31.6361 68.8386 31.1492C68.8391 31.0991 68.8398 31.049 68.8405 30.999C68.7285 30.5933 68.6252 30.1883 68.5843 29.9026C68.5505 29.6663 68.5996 29.4925 68.6416 29.3433C68.6704 29.2404 68.6959 29.1504 68.6887 29.059C68.6848 29.01 68.6766 28.9439 68.6666 28.8635C68.626 28.5355 68.5563 27.9796 68.6372 27.4688C68.6732 27.2415 68.7501 26.977 68.8229 26.7245C68.8896 26.4937 68.9528 26.2711 68.9789 26.0995L68.98 26.1217C68.9934 26.0273 68.9948 25.9465 68.9789 25.8871C68.9004 25.5978 68.9295 25.2235 68.9626 24.9111C68.9936 24.6115 69.0241 24.3557 68.9517 24.2097C68.8654 24.0393 68.8955 23.8895 68.9406 23.6681C68.972 23.519 69.0104 23.3269 69.0234 23.0766C69.0383 22.7839 69.0931 22.5797 69.1397 22.4008C69.2055 22.1569 69.255 21.9679 69.1572 21.6949C69.0484 21.3843 68.9784 21.0719 69.0097 20.8171C69.0128 20.7919 69.015 20.7658 69.0165 20.7388C69.0219 20.646 69.0182 20.543 69.0144 20.4344C69.0079 20.2507 69.0013 20.0656 69.038 19.8885C69.0683 19.7478 69.1474 19.6284 69.2175 19.5218C69.2393 19.4882 69.2602 19.4571 69.2785 19.4272C69.2768 19.315 69.2746 19.2011 69.2716 19.0858C69.2586 19.0672 69.2443 19.0477 69.2294 19.0272C69.1551 18.9274 69.0639 18.8044 69.0179 18.6487C68.9452 18.4042 68.9888 18.189 69.0351 17.963C69.0712 17.7887 69.1088 17.6003 69.094 17.3932C69.0839 17.2512 69.0505 17.0842 69.0174 16.9251C68.9683 16.6859 68.92 16.4472 68.9494 16.2832C68.9604 16.2215 69.0104 16.168 69.0601 16.1151C69.0604 16.1148 69.0607 16.1146 69.061 16.1144C69.0644 16.1108 69.0677 16.1071 69.071 16.1035C69.0311 15.7027 68.9875 15.3017 68.9416 14.8996C68.9286 14.8649 68.9157 14.8299 68.9031 14.7952C68.8413 14.6257 68.7813 14.4598 68.6965 14.3523C68.6046 14.2363 68.5504 13.9418 68.4933 13.6328C68.4559 13.4303 68.4173 13.2205 68.366 13.0496C68.3361 12.9497 68.3875 12.8546 68.4405 12.7569C68.49 12.6656 68.5408 12.5718 68.5279 12.4696C68.5214 12.4184 68.4998 12.3632 68.4767 12.3043C68.4564 12.2524 68.4349 12.1977 68.4216 12.1401C68.4094 12.0866 68.4372 11.9672 68.4726 11.8146C68.4945 11.7203 68.5192 11.6135 68.5395 11.5005C68.5065 11.2032 68.4748 10.9052 68.4453 10.6089C68.3998 10.5474 68.3408 10.4934 68.2652 10.4508C68.2109 10.4202 68.146 10.3943 68.0797 10.3676C67.9895 10.3314 67.8962 10.2939 67.8218 10.2423C67.7637 10.2019 67.7404 10.1542 67.7645 10.1222C67.7757 10.1073 67.7968 10.0958 67.816 10.0853C67.8379 10.0734 67.8574 10.0628 67.8568 10.0498C67.8563 10.0405 67.8407 10.0308 67.8219 10.0189C67.7918 10.0001 67.753 9.97479 67.7515 9.93669C67.746 9.79462 67.7581 9.63404 67.7699 9.47803C67.7832 9.3016 67.796 9.1307 67.7841 8.9957C67.7708 8.84266 67.828 8.62434 67.885 8.40773C67.9248 8.25413 67.9644 8.10217 67.9805 7.97317C67.9963 7.8446 67.9641 7.71001 67.9327 7.58229C67.895 7.43131 67.8586 7.27653 67.9089 7.15175C67.9191 7.12628 67.9816 7.09462 68.0598 7.05508C68.1152 7.02699 68.1785 6.99528 68.2369 6.95715C68.2366 6.79281 68.2388 6.63621 68.2433 6.47347C68.2348 6.46773 68.2261 6.46182 68.2173 6.4559C68.2171 6.45581 68.2169 6.45572 68.2167 6.45562C68.0174 6.32079 67.7448 6.14662 67.9067 5.8877C67.9479 5.82308 68.0241 5.78282 68.0926 5.74662C68.1599 5.71128 68.2202 5.67934 68.2328 5.63094C68.247 5.57643 68.2055 5.51276 68.1604 5.4444C68.097 5.34932 68.0262 5.24127 68.0917 5.13129C68.0962 5.12385 68.1011 5.11586 68.106 5.10756C68.1367 5.05585 68.1769 4.98853 68.2403 4.91731C68.2735 4.87774 68.3129 4.83705 68.3606 4.79685C68.3971 4.45826 68.44 4.10897 68.4868 3.76681C68.5649 3.19767 68.6541 2.62501 68.7433 2.05051C68.7872 1.77527 68.9762 1.50428 69.2793 1.30801C69.5828 1.11191 69.9731 1.00007 70.3771 1C70.781 0.998828 71.1715 1.10893 71.4757 1.3039C71.7795 1.499 71.9696 1.76926 72.0145 2.04434C72.087 2.4973 72.1595 2.95326 72.2264 3.40602C72.2349 3.42927 72.243 3.45284 72.2507 3.47654C72.3076 3.65784 72.4216 3.81738 72.5358 3.98203C72.562 4.01902 72.5883 4.05653 72.6138 4.09463Z" fill="white"/>
<path d="M96.6451 15.9508C96.8395 16.1326 96.7619 16.4874 96.7192 16.6779C96.7185 16.6814 96.7178 16.685 96.7171 16.6886C96.707 16.7342 96.7046 16.7817 96.7019 16.8298C96.6986 16.8903 96.6947 16.9623 96.6756 17.0672C96.6572 17.1608 96.6246 17.2926 96.5647 17.457C96.5696 17.5545 96.5725 17.6598 96.5729 17.7556C96.5775 18.8288 96.4222 19.9042 96.2372 20.9776C96.2383 20.9912 96.2394 21.005 96.2406 21.0191C96.2625 21.2868 96.2899 21.6207 96.221 21.8311C96.1335 22.0979 96.0518 22.2805 95.9812 22.4293C95.8341 23.2822 95.7051 24.1362 95.6599 24.9881C95.6457 25.2555 95.64 25.5223 95.6443 25.789C95.6483 26.0348 95.6586 26.279 95.6747 26.5255C95.7195 26.6677 95.7721 26.8018 95.8209 26.9275C95.8896 27.1031 95.9507 27.2589 95.9724 27.3889C96.0245 27.6993 95.9611 28.0575 95.9145 28.322C95.9069 28.3651 95.8997 28.4053 95.8935 28.4431C95.9255 28.654 95.9595 28.8596 95.9946 29.0685C95.9789 29.0829 95.9626 29.0973 95.9458 29.112C95.7367 29.2959 95.7461 29.5147 95.7623 29.8599C95.7637 29.8898 95.7652 29.9205 95.7665 29.9521C95.7722 30.0831 95.7761 30.2218 95.7704 30.3874C95.7659 30.5203 95.6837 30.5895 95.6167 30.6473C95.597 30.6647 95.5786 30.681 95.5639 30.6973C95.5135 30.7531 95.573 30.8066 95.6434 30.8687C95.7347 30.9475 95.8446 31.048 95.7564 31.1858C95.4761 31.6317 95.693 31.8067 95.8567 31.9413C95.9048 31.9803 95.9482 32.0153 95.9734 32.0519C96.0554 32.1726 95.994 32.3525 95.9035 32.4961C95.8314 32.6073 95.9266 32.8139 96.0408 32.967C96.0838 33.0241 96.0918 33.1053 96.1014 33.2017C96.1112 33.2992 96.1231 33.4163 96.1778 33.5328C96.3165 33.8297 96.3881 33.9852 96.4453 34.1089C96.4617 34.1446 96.4767 34.1775 96.4922 34.21C96.5414 34.3133 96.5883 34.4433 96.6368 34.5727C96.6949 34.7292 96.7554 34.8841 96.8232 35.0003C96.8239 35.3267 96.8204 35.6583 96.8234 35.9981C96.8246 36.1725 96.6774 36.3729 96.4048 36.5573C96.132 36.7413 95.7581 36.8933 95.3552 36.9783C94.9524 37.0631 94.5489 37.075 94.2244 37.0114C93.9001 36.9475 93.6832 36.8112 93.6147 36.6346C93.4775 36.2792 93.3438 35.9126 93.2317 35.5404C93.0948 35.0868 92.9894 34.6216 92.9388 34.1597C92.9032 33.8352 92.8826 33.5116 92.8735 33.1898C92.8726 33.1567 92.8718 33.122 92.8711 33.0897C92.7483 32.8294 92.6375 32.5681 92.5923 32.3815C92.5549 32.2273 92.602 32.1115 92.6423 32.011C92.6702 31.9437 92.6949 31.8835 92.6871 31.8239C92.6828 31.7923 92.674 31.7465 92.6637 31.6961C92.6212 31.4844 92.5508 31.1225 92.6353 30.7866C92.6729 30.6416 92.7521 30.4617 92.8286 30.3008C92.8679 30.2162 92.9064 30.1327 92.9378 30.0549C92.9935 29.9223 93.0268 29.8076 93.0028 29.7382C92.937 29.5511 92.9803 29.3274 93.0192 29.1365C93.0562 28.9508 93.0888 28.7899 93.0178 28.7007C92.9329 28.5938 92.9638 28.4984 93.0098 28.3603C93.0417 28.2646 93.0806 28.1427 93.0937 27.9848C93.1089 27.801 93.1633 27.6668 93.2098 27.5565C93.2751 27.4001 93.3243 27.2794 93.2257 27.1082C93.1162 26.9165 93.0451 26.7145 93.0756 26.5544C93.0894 26.4815 93.0842 26.3972 93.0788 26.3114C93.0717 26.1973 93.0643 26.0768 93.1004 25.9657C93.1301 25.8745 93.2088 25.7987 93.2785 25.7312C93.3002 25.7102 93.321 25.69 93.3392 25.6705C93.337 25.5984 93.3344 25.5258 93.3309 25.4539C93.3179 25.4424 93.3035 25.4304 93.2886 25.4178C93.2138 25.3547 93.1222 25.277 93.0757 25.1796C93.0021 25.0252 93.0448 24.889 93.0903 24.7447C93.1257 24.6325 93.1627 24.5158 93.1472 24.3828C93.1366 24.292 93.1026 24.1891 93.069 24.0869C93.0191 23.9351 92.9701 23.7854 92.9989 23.6806C93.0098 23.6412 93.0596 23.607 93.1091 23.5731C93.1094 23.573 93.1097 23.5728 93.11 23.5727C93.1134 23.5704 93.1167 23.568 93.12 23.5657C93.0789 23.312 93.0341 23.0573 92.9872 22.8042C92.9741 22.7822 92.9611 22.76 92.9484 22.7379C92.8861 22.6304 92.8257 22.5262 92.7407 22.4588C92.6485 22.3865 92.5935 22.1989 92.5358 22.004C92.4979 21.8765 92.4589 21.7424 92.4072 21.6349C92.3771 21.5717 92.4283 21.5121 92.4811 21.4491C92.5304 21.3906 92.581 21.3307 92.5679 21.2661C92.5614 21.2337 92.5397 21.1989 92.5165 21.1619C92.4961 21.1291 92.4745 21.0952 92.4611 21.0584C92.4487 21.0243 92.4763 20.9481 92.5115 20.8512C92.5332 20.7912 92.5577 20.7237 92.5778 20.6526C92.5443 20.4618 92.5122 20.2778 92.4823 20.0869C92.4367 20.0478 92.3777 20.0141 92.3019 19.9877C92.2476 19.9687 92.1827 19.9527 92.1164 19.9363C92.0261 19.9139 91.9328 19.8908 91.8583 19.8588C91.8001 19.8333 91.7768 19.8026 91.8008 19.782C91.812 19.7724 91.8331 19.7649 91.8522 19.7581C91.8741 19.7504 91.8936 19.7435 91.893 19.7352C91.8925 19.7292 91.877 19.7231 91.8581 19.7155C91.828 19.7035 91.7891 19.6879 91.7876 19.6638C91.782 19.5737 91.7938 19.475 91.8055 19.373C91.8185 19.261 91.8312 19.1539 91.8191 19.0682C91.8057 18.9698 91.8627 18.8321 91.9195 18.6951C91.9592 18.597 91.9986 18.5004 92.0146 18.4187C92.0303 18.3405 91.998 18.2516 91.9665 18.171C91.9287 18.0737 91.8922 17.9805 91.9424 17.8987C91.9526 17.8824 92.0151 17.8619 92.0932 17.8363C92.1486 17.8183 92.2119 17.7975 92.2702 17.7741C92.2698 17.6759 92.2719 17.5678 92.2763 17.468C92.2678 17.4645 92.2591 17.4609 92.2503 17.4572C92.2501 17.4572 92.2499 17.4571 92.2497 17.4571C92.0503 17.3785 91.7776 17.2568 91.9393 17.1003C91.9443 17.0956 91.9497 17.091 91.9555 17.0866C91.9986 17.0524 92.0648 17.0294 92.1251 17.0084C92.1924 16.985 92.2527 16.9643 92.2652 16.9345C92.2794 16.9007 92.2379 16.8614 92.1927 16.8193C92.1293 16.7576 92.0584 16.6877 92.1238 16.6202C92.1283 16.6155 92.1332 16.6106 92.1381 16.6054C92.1847 16.5583 92.2535 16.4802 92.3924 16.4073C92.4287 16.1907 92.4713 15.9736 92.518 15.7555C92.5957 15.3973 92.6844 15.0287 92.7732 14.6699C92.8169 14.4913 93.0058 14.3237 93.3088 14.1976C93.6121 14.0733 94.0024 13.9997 94.4064 14C94.8102 13.9981 95.2008 14.0668 95.5051 14.1889C95.8091 14.3124 95.9993 14.4784 96.0444 14.6567C96.1172 14.9422 96.1901 15.2316 96.2573 15.5163C96.2658 15.531 96.2739 15.5459 96.2816 15.5609C96.3387 15.676 96.4528 15.7748 96.567 15.8804C96.5933 15.9035 96.6196 15.927 96.6451 15.9508Z" fill="white"/>
</g>
<defs>
<filter id="filter0_g_263_345" x="0" y="0" width="99.2129" height="38.5447" filterUnits="userSpaceOnUse" color-interpolation-filters="sRGB">
<feFlood flood-opacity="0" result="BackgroundImageFix"/>
<feBlend mode="normal" in="SourceGraphic" in2="BackgroundImageFix" result="shape"/>
<feTurbulence type="fractalNoise" baseFrequency="2.5 2.5" numOctaves="3" seed="7431" />
<feDisplacementMap in="shape" scale="2" xChannelSelector="R" yChannelSelector="G" result="displacedImage" width="100%" height="100%" />
<feMerge result="effect1_texture_263_345">
<feMergeNode in="displacedImage"/>
</feMerge>
</filter>
</defs>
</svg>
